<svg width="44" height="41" viewBox="0 0 44 41" fill="none" xmlns="http://www.w3.org/2000/svg"><path d="M21.868 40.898V29.976a8.737 8.737 0 0 0-4.296-7.525L1.126 12.744a1.092 1.092 0 0 0-.187.64v15.283c0 .13.07.25.182.315L21.814 40.93a.036.036 0 0 0 .054-.032Z" fill="url(#a)"/><path d="M22.167 40.903V29.846a8.737 8.737 0 0 1 4.342-7.552l16.406-9.55s.034.028.11.203c.075.175.071.373.071.373v15.352c0 .13-.07.25-.182.316L22.222 40.934a.036.036 0 0 1-.055-.031Z" fill="url(#b)"/><path d="M.963 28.762v-15.55c0-.39.208-.75.546-.945L21.838.53a.036.036 0 0 1 .054.031v11.057a8.737 8.737 0 0 1-4.342 7.552L1.018 28.793a.036.036 0 0 1-.055-.031Z" fill="url(#c)"/><path d="M43.104 28.762v-15.55c0-.39-.209-.75-.547-.945L22.23.53a.036.036 0 0 0-.055.031v11.057a8.737 8.737 0 0 0 4.342 7.552l16.533 9.623a.036.036 0 0 0 .055-.031Z" fill="url(#d)"/><defs><linearGradient id="a" x1="21.798" y1="29.279" x2="1.411" y2="28.824" gradientUnits="userSpaceOnUse"><stop stop-color="#B721FF"/><stop offset="1" stop-color="#21D4FD"/></linearGradient><linearGradient id="b" x1="22.549" y1="28.461" x2="42.572" y2="28.552" gradientUnits="userSpaceOnUse"><stop stop-color="#E6007A"/><stop offset="1" stop-color="#5025C0"/></linearGradient><linearGradient id="c" x1="22.183" y1="14.662" x2="1.887" y2="14.662" gradientUnits="userSpaceOnUse"><stop stop-color="#92FE9D"/><stop offset="1" stop-color="#00C9FF"/></linearGradient><linearGradient id="d" x1="43.12" y1="15.582" x2="21.458" y2="15.855" gradientUnits="userSpaceOnUse"><stop stop-color="#6A0DAD"/><stop offset="1" stop-color="#006CF9"/></linearGradient></defs></svg>